<svg width="1280" height="720" viewBox="0 0 1280 720" fill="none" xmlns="http://www.w3.org/2000/svg">
  <rect width="1280" height="720" rx="36" fill="#0f172a"/>
  <rect x="78" y="64" width="1124" height="592" rx="34" fill="#111827" stroke="#ffffff" stroke-opacity=".1"/>
  <text x="112" y="124" fill="#f8fafc" font-family="Inter, Arial, sans-serif" font-size="28" font-weight="800">Admin Dashboard</text>
  <text x="112" y="158" fill="#94a3b8" font-family="Inter, Arial, sans-serif" font-size="18">Manage participants, balances, missed days, and profile photos.</text>
  <rect x="940" y="104" width="190" height="52" rx="16" fill="#f59e0b"/>
  <text x="1035" y="137" fill="#111827" font-family="Inter, Arial, sans-serif" font-size="18" font-weight="800" text-anchor="middle">Add Participant</text>
  <g transform="translate(112 210)">
    <rect width="224" height="128" rx="22" fill="#1f2937"/>
    <circle cx="42" cy="42" r="20" fill="#f59e0b" opacity=".22"/>
    <text x="24" y="98" fill="#f8fafc" font-family="Inter, Arial, sans-serif" font-size="30" font-weight="800">120 EGP</text>
    <text x="24" y="66" fill="#fbbf24" font-family="Inter, Arial, sans-serif" font-size="15">Collected</text>
  </g>
  <g transform="translate(368 210)">
    <rect width="224" height="128" rx="22" fill="#1f2937"/>
    <circle cx="42" cy="42" r="20" fill="#38bdf8" opacity=".18"/>
    <text x="24" y="98" fill="#f8fafc" font-family="Inter, Arial, sans-serif" font-size="30" font-weight="800">10</text>
    <text x="24" y="66" fill="#7dd3fc" font-family="Inter, Arial, sans-serif" font-size="15">Participants</text>
  </g>
  <g transform="translate(624 210)">
    <rect width="224" height="128" rx="22" fill="#1f2937"/>
    <circle cx="42" cy="42" r="20" fill="#ef4444" opacity=".18"/>
    <text x="24" y="98" fill="#f8fafc" font-family="Inter, Arial, sans-serif" font-size="30" font-weight="800">18</text>
    <text x="24" y="66" fill="#fca5a5" font-family="Inter, Arial, sans-serif" font-size="15">Missed Days</text>
  </g>
  <g transform="translate(880 210)">
    <rect width="224" height="128" rx="22" fill="#1f2937"/>
    <circle cx="42" cy="42" r="20" fill="#22c55e" opacity=".18"/>
    <text x="24" y="98" fill="#f8fafc" font-family="Inter, Arial, sans-serif" font-size="30" font-weight="800">0 EGP</text>
    <text x="24" y="66" fill="#86efac" font-family="Inter, Arial, sans-serif" font-size="15">Unpaid</text>
  </g>
  <rect x="112" y="386" width="992" height="198" rx="24" fill="#1f2937"/>
  <rect x="112" y="386" width="992" height="54" rx="24" fill="#273449"/>
  <text x="156" y="420" fill="#cbd5e1" font-family="Inter, Arial, sans-serif" font-size="16" font-weight="700">Participant</text>
  <text x="610" y="420" fill="#cbd5e1" font-family="Inter, Arial, sans-serif" font-size="16" font-weight="700">Missed</text>
  <text x="754" y="420" fill="#cbd5e1" font-family="Inter, Arial, sans-serif" font-size="16" font-weight="700">Paid</text>
  <text x="900" y="420" fill="#cbd5e1" font-family="Inter, Arial, sans-serif" font-size="16" font-weight="700">Actions</text>
  <g fill="#334155">
    <rect x="156" y="474" width="292" height="16" rx="8"/>
    <rect x="156" y="530" width="248" height="16" rx="8"/>
    <rect x="610" y="470" width="58" height="28" rx="14"/>
    <rect x="610" y="526" width="58" height="28" rx="14"/>
    <rect x="754" y="470" width="82" height="28" rx="14"/>
    <rect x="754" y="526" width="82" height="28" rx="14"/>
    <rect x="900" y="470" width="44" height="28" rx="10"/>
    <rect x="956" y="470" width="44" height="28" rx="10"/>
    <rect x="900" y="526" width="44" height="28" rx="10"/>
    <rect x="956" y="526" width="44" height="28" rx="10"/>
  </g>
  <circle cx="132" cy="482" r="18" fill="#f59e0b" opacity=".7"/>
  <circle cx="132" cy="538" r="18" fill="#38bdf8" opacity=".7"/>
</svg>
